<?xml version="1.0" standalone="no"?><!DOCTYPE svg PUBLIC "-//W3C//DTD SVG 1.1//EN" "http://www.w3.org/Graphics/SVG/1.1/DTD/svg11.dtd"><svg t="1555871612402" class="icon" style="" viewBox="0 0 1024 1024" version="1.1" xmlns="http://www.w3.org/2000/svg" p-id="3323" xmlns:xlink="http://www.w3.org/1999/xlink" width="32" height="32"><defs><style type="text/css"></style></defs><path d="M778.666667 416m-34.133334 0a34.133333 34.133333 0 1 0 68.266667 0 34.133333 34.133333 0 1 0-68.266667 0Z" fill="#36ab60" p-id="3324"></path><path d="M925.866667 657.066667c-4.266667-4.266667-8.533333-8.533333-14.933334-8.533334l-12.8-2.133333c-93.866667-10.666667-264.533333-32-375.466666 168.533333v-162.133333h21.333333c4.266667 0 8.533333 0 12.8-2.133333 81.066667-10.666667 151.466667-51.2 202.666667-117.333334 6.4-8.533333 6.4-23.466667-4.266667-29.866666-8.533333-6.4-23.466667-6.4-29.866667 4.266666-44.8 57.6-106.666667 93.866667-177.066666 102.4h-93.866667c-83.2-10.666667-155.733333-59.733333-200.533333-138.666666-53.333333-91.733333-66.133333-211.2-32-296.533334 0-2.133333 2.133333-4.266667 4.266666-4.266666h8.533334c46.933333 0 91.733333 8.533333 132.266666 27.733333l17.066667 8.533333 8.533333-17.066666c29.866667-53.333333 64-96 100.266667-121.6l2.133333-2.133334h6.4l2.133334 2.133334c36.266667 27.733333 68.266667 66.133333 100.266666 123.733333l8.533334 17.066667 17.066666-8.533334c40.533333-19.2 87.466667-27.733333 136.533334-27.733333h8.533333c2.133333 0 4.266667 2.133333 4.266667 4.266667 17.066667 38.4 23.466667 85.333333 19.2 134.4 0 12.8 8.533333 21.333333 19.2 23.466666 10.666667 0 21.333333-8.533333 23.466666-19.2 4.266667-55.466667-4.266667-108.8-21.333333-153.6-6.4-17.066667-23.466667-29.866667-42.666667-29.866666H768c-46.933333 0-93.866667 8.533333-136.533333 23.466666-29.866667-53.333333-64-91.733333-100.266667-119.466666-2.133333-2.133333-4.266667-4.266667-6.4-4.266667-12.8-10.666667-29.866667-12.8-44.8-6.4l-12.8 6.4c-38.4 27.733333-72.533333 68.266667-102.4 119.466667-40.533333-14.933333-85.333333-23.466667-132.266667-23.466667h-8.533333c-19.2 0-36.266667 10.666667-42.666667 29.866667-40.533333 98.133333-25.6 232.533333 34.133334 334.933333 53.333333 89.6 134.4 145.066667 230.4 157.866667 4.266667 0 8.533333 2.133333 12.8 2.133333h21.333333v185.6c-110.933333-160-264.533333-142.933333-354.133333-132.266667l-12.8 2.133334c-6.4 0-10.666667 4.266667-14.933334 8.533333-4.266667 4.266667-4.266667 10.666667-2.133333 17.066667 44.8 162.133333 117.333333 202.666667 384 204.8v42.666666c0 12.8 8.533333 21.333333 21.333333 21.333334s21.333333-8.533333 21.333334-21.333334v-100.266666h2.133333c283.733333 0 360.533333-38.4 405.333333-204.8 0-6.4 0-12.8-4.266666-19.2zM142.933333 746.666667c89.6-10.666667 228.266667-19.2 322.133334 149.333333-232.533333-2.133333-285.866667-34.133333-322.133334-149.333333z m416 91.733333c72.533333-130.133333 168.533333-153.6 251.733334-153.6 25.6 0 49.066667 2.133333 70.4 4.266667-36.266667 113.066667-89.6 145.066667-322.133334 149.333333z" fill="#36ab60" p-id="3325"></path></svg>