<?xml version="1.0" standalone="no"?><!DOCTYPE svg PUBLIC "-//W3C//DTD SVG 1.1//EN" "http://www.w3.org/Graphics/SVG/1.1/DTD/svg11.dtd"><svg t="1555871817470" class="icon" style="" viewBox="0 0 1024 1024" version="1.1" xmlns="http://www.w3.org/2000/svg" p-id="4145" xmlns:xlink="http://www.w3.org/1999/xlink" width="32" height="32"><defs><style type="text/css"></style></defs><path d="M507.954871 776.871553l5.630231 3.869121 5.630231-3.869121c86.36295-59.311851 160.069649-145.033187 207.54594-241.36928 48.172139-97.747231 63.328327-194.734146 42.678008-273.092795-13.234419-50.215682-40.497343-91.110067-81.032548-121.549334-43.802622-32.892131-102.331643-52.717665-173.962054-58.926064l-0.858554-0.074701-0.858554 0.074701C441.096137 88.142479 382.567115 107.968014 338.76347 140.861168c-40.535205 30.439266-67.799152 71.334675-81.031525 121.549334-20.650319 78.359672-5.495154 175.345564 42.676985 273.093818C347.883175 631.838366 421.591921 717.558679 507.954871 776.871553zM276.967032 267.479961c25.552979-96.961332 107.36324-154.230664 236.618069-165.652807 129.254829 11.422144 211.06509 68.689429 236.618069 165.651784 19.428491 73.721025 4.76656 165.783791-41.284265 259.230066-44.958958 91.226724-114.162086 172.603103-195.33278 229.846852-81.172741-57.242725-150.374846-138.618081-195.33278-229.844805C272.200472 433.264774 257.537518 341.202009 276.967032 267.479961z" p-id="4146" fill="#e8989a"></path><path d="M512.002047 942.139597l69.957305-100.354616 379.865587 0L782.985808 662.950967l-92.377944 0c-4.967128 6.718005-10.047844 13.349029-15.232936 19.893072l99.371218 0 139.052986 139.04787L571.57791 821.891909l-59.575864 85.461417-59.576887-85.461417L110.201891 821.891909l139.056056-139.04787 102.536304 0c-5.185093-6.545066-10.265808-13.175067-15.232936-19.893072l-95.542007 0L62.175061 841.786005l379.868657 0L512.002047 942.139597z" p-id="4147" fill="#e8989a"></path><path d="M513.607614 488.116033c62.945611 0 114.155946-51.210335 114.155946-114.155946 0-62.944588-51.210335-114.152876-114.155946-114.152876-62.944588 0-114.152876 51.208289-114.152876 114.152876C399.454738 436.905698 450.663026 488.116033 513.607614 488.116033zM513.607614 279.700283c51.976792 0 94.262874 42.285059 94.262874 94.259804 0 51.976792-42.286082 94.262874-94.262874 94.262874-51.974745 0-94.259804-42.286082-94.259804-94.262874C419.34781 321.985342 461.632869 279.700283 513.607614 279.700283z" p-id="4148" fill="#e8989a"></path></svg>