<?xml version="1.0" standalone="no"?><!DOCTYPE svg PUBLIC "-//W3C//DTD SVG 1.1//EN" "http://www.w3.org/Graphics/SVG/1.1/DTD/svg11.dtd"><svg t="1555872251220" class="icon" style="" viewBox="0 0 1024 1024" version="1.1" xmlns="http://www.w3.org/2000/svg" p-id="2571" xmlns:xlink="http://www.w3.org/1999/xlink" width="32" height="32"><defs><style type="text/css"></style></defs><path d="M984.928 332.576l-464.8-154.912c-5.312-1.76-11.04-1.76-16.32 0l-464.8 154.912c-10.528 3.52-17.664 13.376-17.664 24.48s7.136 20.96 17.664 24.448l137.28 45.792 0 136.32c0 6.88 2.72 13.44 7.552 18.272 4.544 4.576 113.312 110.88 328.16 110.88 78.112 0 151.008-14.048 216.608-41.792 13.12-5.536 19.296-20.736 13.76-33.824s-20.704-19.232-33.824-13.76c-59.232 25.056-125.344 37.728-196.512 37.728-100.448 0-174.368-26.016-218.656-47.84-32.8-16.16-54.752-32.448-65.376-41.248l0-107.488 275.904 92c2.656 0.864 5.408 1.344 8.16 1.344s5.536-0.448 8.16-1.344l275.872-92 0 46.048c-30.048 10.656-51.616 39.328-51.616 72.992 0 31.552 18.944 58.72 46.048 70.784l-45.28 181.152c-1.952 7.648-0.256 15.904 4.704 22.176 4.896 6.24 12.384 9.92 20.32 9.92l103.328 0c7.968 0 15.456-3.68 20.352-9.92s6.624-14.496 4.704-22.176l-45.312-181.152c27.104-12.064 46.08-39.264 46.08-70.784 0-33.664-21.6-62.368-51.648-72.992l0-63.328 137.28-45.792c10.464-3.424 17.6-13.312 17.6-24.416s-7.136-20.96-17.664-24.48l-0.064-0.032zM821.824 537.824c14.24 0 25.824 11.552 25.824 25.824s-11.584 25.824-25.824 25.824-25.824-11.552-25.824-25.824c0.032-14.24 11.584-25.824 25.824-25.824l0 0zM803.232 796.032l18.592-74.272 18.592 74.272-37.152 0zM819.776 382.176l-303.52-50.592c-14.112-2.336-27.36 7.168-29.696 21.216-2.336 14.016 7.168 27.36 21.216 29.728l207.328 34.528-203.104 67.712-383.136-127.744 383.168-127.712 383.168 127.712-75.424 25.152z" p-id="2572" fill="#7dc5eb"></path></svg>